<mxfile host="Electron" agent="Mozilla/5.0 (X11; Linux x86_64) AppleWebKit/537.36 (KHTML, like Gecko) draw.io/24.7.8 Chrome/128.0.6613.36 Electron/32.0.1 Safari/537.36" version="24.7.8">
  <diagram name="Page-1" id="ACfHbxiXbORu5v1-oQxs">
    <mxGraphModel dx="1216" dy="998" grid="1" gridSize="10" guides="1" tooltips="1" connect="1" arrows="1" fold="1" page="1" pageScale="1" pageWidth="850" pageHeight="1100" math="0" shadow="0">
      <root>
        <mxCell id="0" />
        <mxCell id="1" parent="0" />
        <mxCell id="y5CObWysCdetJC3XvUUU-1" value="&lt;div&gt;&lt;span style=&quot;font-weight: 400;&quot;&gt;«abstract»&lt;/span&gt;&lt;br&gt;&lt;/div&gt;MySqlTestBase" style="swimlane;fontStyle=1;align=center;verticalAlign=top;childLayout=stackLayout;horizontal=1;startSize=40;horizontalStack=0;resizeParent=1;resizeParentMax=0;resizeLast=0;collapsible=1;marginBottom=0;whiteSpace=wrap;html=1;" vertex="1" parent="1">
          <mxGeometry x="80" y="160" width="360" height="100" as="geometry" />
        </mxCell>
        <mxCell id="y5CObWysCdetJC3XvUUU-2" value="- database: MySQLContainer" style="text;strokeColor=none;fillColor=none;align=left;verticalAlign=top;spacingLeft=4;spacingRight=4;overflow=hidden;rotatable=0;points=[[0,0.5],[1,0.5]];portConstraint=eastwest;whiteSpace=wrap;html=1;" vertex="1" parent="y5CObWysCdetJC3XvUUU-1">
          <mxGeometry y="40" width="360" height="26" as="geometry" />
        </mxCell>
        <mxCell id="y5CObWysCdetJC3XvUUU-3" value="" style="line;strokeWidth=1;fillColor=none;align=left;verticalAlign=middle;spacingTop=-1;spacingLeft=3;spacingRight=3;rotatable=0;labelPosition=right;points=[];portConstraint=eastwest;strokeColor=inherit;" vertex="1" parent="y5CObWysCdetJC3XvUUU-1">
          <mxGeometry y="66" width="360" height="8" as="geometry" />
        </mxCell>
        <mxCell id="y5CObWysCdetJC3XvUUU-4" value="databaseProperties(registry: DynamicPropertyRegistry)" style="text;strokeColor=none;fillColor=none;align=left;verticalAlign=top;spacingLeft=4;spacingRight=4;overflow=hidden;rotatable=0;points=[[0,0.5],[1,0.5]];portConstraint=eastwest;whiteSpace=wrap;html=1;" vertex="1" parent="y5CObWysCdetJC3XvUUU-1">
          <mxGeometry y="74" width="360" height="26" as="geometry" />
        </mxCell>
        <mxCell id="y5CObWysCdetJC3XvUUU-5" value="&lt;h1 style=&quot;margin-top: 0px;&quot;&gt;Persistence for Microservices&lt;/h1&gt;&lt;p&gt;All about the underlying architecture and implementation of persistence&lt;/p&gt;" style="text;html=1;whiteSpace=wrap;overflow=hidden;rounded=0;fillColor=#b0e3e6;strokeColor=none;" vertex="1" parent="1">
          <mxGeometry x="80" y="30" width="360" height="90" as="geometry" />
        </mxCell>
        <mxCell id="y5CObWysCdetJC3XvUUU-7" value="&lt;div style=&quot;background-color:#ffffff;padding:0px 0px 0px 2px;&quot;&gt;&lt;div style=&quot;font-family: Monospace; font-size: 10pt; white-space: pre;&quot;&gt;&lt;p style=&quot;margin:0;&quot;&gt;&lt;span style=&quot;color:#7f0055;font-weight:bold;&quot;&gt;package&lt;/span&gt; com.david.microservices.alpha.review;&lt;/p&gt;&lt;p style=&quot;margin:0;&quot;&gt;&lt;br&gt;&lt;/p&gt;&lt;p style=&quot;margin:0;&quot;&gt;&lt;span style=&quot;color:#7f0055;font-weight:bold;&quot;&gt;import&lt;/span&gt; org.springframework.test.context.DynamicPropertyRegistry;&lt;/p&gt;&lt;p style=&quot;margin:0;&quot;&gt;&lt;span style=&quot;color:#7f0055;font-weight:bold;&quot;&gt;import&lt;/span&gt; &lt;span style=&quot;background-color: rgb(212, 212, 212);&quot;&gt;org.springframework.test.context.DynamicPropertySource&lt;/span&gt;;&lt;/p&gt;&lt;p style=&quot;margin:0;&quot;&gt;&lt;span style=&quot;color:#7f0055;font-weight:bold;&quot;&gt;import&lt;/span&gt; org.testcontainers.containers.MySQLContainer;&lt;/p&gt;&lt;p style=&quot;margin:0;&quot;&gt;&lt;br&gt;&lt;/p&gt;&lt;p style=&quot;margin:0;&quot;&gt;&lt;span style=&quot;color:#7f0055;font-weight:bold;&quot;&gt;public&lt;/span&gt; &lt;span style=&quot;color:#7f0055;font-weight:bold;&quot;&gt;abstract&lt;/span&gt; &lt;span style=&quot;color:#7f0055;font-weight:bold;&quot;&gt;class&lt;/span&gt; MySqlTestBase {&lt;/p&gt;&lt;p style=&quot;margin:0;&quot;&gt;&#x9;&lt;/p&gt;&lt;p style=&quot;margin:0;&quot;&gt;&#x9;&lt;span style=&quot;color:#3f7f5f;&quot;&gt;// Declare database container with an extended wait period of 5 minutes for the container to start up&lt;/span&gt;&lt;/p&gt;&lt;p style=&quot;margin:0;&quot;&gt;&#x9;&lt;span style=&quot;color:#7f0055;font-weight:bold;&quot;&gt;private&lt;/span&gt; &lt;span style=&quot;color:#7f0055;font-weight:bold;&quot;&gt;static&lt;/span&gt; MySQLContainer&amp;lt;?&amp;gt; &lt;span style=&quot;color:#0000c0;font-style:italic;&quot;&gt;database&lt;/span&gt; = &lt;span style=&quot;color:#7f0055;font-weight:bold;&quot;&gt;new&lt;/span&gt; MySQLContainer&amp;lt;&amp;gt;(&lt;span style=&quot;color:#2a00ff;&quot;&gt;&quot;mysql:8.0.32&quot;&lt;/span&gt;).withStartupTimeoutSeconds(300);&lt;/p&gt;&lt;p style=&quot;margin:0;&quot;&gt;&#x9;&lt;/p&gt;&lt;p style=&quot;margin:0;&quot;&gt;&#x9;&lt;span style=&quot;color:#3f7f5f;&quot;&gt;// Start the database container before any JUnit code is invoked&lt;/span&gt;&lt;/p&gt;&lt;p style=&quot;margin:0;&quot;&gt;&#x9;&lt;span style=&quot;color:#7f0055;font-weight:bold;&quot;&gt;static&lt;/span&gt; {&lt;/p&gt;&lt;p style=&quot;margin:0;&quot;&gt;&#x9;&#x9;&lt;span style=&quot;color:#0000c0;font-style:italic;&quot;&gt;database&lt;/span&gt;.start();&lt;/p&gt;&lt;p style=&quot;margin:0;&quot;&gt;&#x9;}&lt;/p&gt;&lt;p style=&quot;margin:0;&quot;&gt;&#x9;&lt;/p&gt;&lt;p style=&quot;margin:0;&quot;&gt;&#x9;&lt;span style=&quot;color:#3f5fbf;&quot;&gt;/**&lt;/span&gt;&lt;/p&gt;&lt;p style=&quot;margin:0;&quot;&gt;&lt;span style=&quot;color:#3f5fbf;&quot;&gt;&#x9; * &lt;/span&gt;&lt;/p&gt;&lt;p style=&quot;margin:0;&quot;&gt;&lt;span style=&quot;color:#3f5fbf;&quot;&gt;&#x9; * &lt;/span&gt;&lt;span style=&quot;color:#7f9fbf;font-weight:bold;&quot;&gt;@param&lt;/span&gt;&lt;span style=&quot;color:#3f5fbf;&quot;&gt; registry&lt;/span&gt;&lt;/p&gt;&lt;p style=&quot;margin:0;&quot;&gt;&lt;span style=&quot;color:#3f5fbf;&quot;&gt;&#x9; * &lt;/span&gt;&lt;/p&gt;&lt;p style=&quot;margin:0;&quot;&gt;&lt;span style=&quot;color:#3f5fbf;&quot;&gt;&#x9; * Get properties dynamically from the started container and override properties in the properties file&lt;/span&gt;&lt;/p&gt;&lt;p style=&quot;margin:0;&quot;&gt;&lt;span style=&quot;color:#3f5fbf;&quot;&gt;&#x9; */&lt;/span&gt;&lt;/p&gt;&lt;p style=&quot;margin:0;&quot;&gt;&#x9;&lt;span style=&quot;color:#646464;&quot;&gt;@&lt;/span&gt;&lt;span style=&quot;color:#646464;background-color:#d4d4d4;&quot;&gt;DynamicPropertySource&lt;/span&gt;&lt;/p&gt;&lt;p style=&quot;margin:0;&quot;&gt;&#x9;&lt;span style=&quot;color:#7f0055;font-weight:bold;&quot;&gt;static&lt;/span&gt; &lt;span style=&quot;color:#7f0055;font-weight:bold;&quot;&gt;void&lt;/span&gt; databaseProperties(DynamicPropertyRegistry &lt;span style=&quot;color:#6a3e3e;&quot;&gt;registry&lt;/span&gt;) {&lt;/p&gt;&lt;p style=&quot;margin:0;&quot;&gt;&#x9;&#x9;&lt;span style=&quot;color:#6a3e3e;&quot;&gt;registry&lt;/span&gt;.add(&lt;span style=&quot;color:#2a00ff;&quot;&gt;&quot;spring.datasource.url&quot;&lt;/span&gt;, &lt;span style=&quot;color:#0000c0;font-style:italic;&quot;&gt;database&lt;/span&gt;::getJdbcUrl);&lt;/p&gt;&lt;p style=&quot;margin:0;&quot;&gt;&#x9;&#x9;&lt;span style=&quot;color:#6a3e3e;&quot;&gt;registry&lt;/span&gt;.add(&lt;span style=&quot;color:#2a00ff;&quot;&gt;&quot;spring.datasource.username&quot;&lt;/span&gt;, &lt;span style=&quot;color:#0000c0;font-style:italic;&quot;&gt;database&lt;/span&gt;::getUsername);&lt;/p&gt;&lt;p style=&quot;margin:0;&quot;&gt;&#x9;&#x9;&lt;span style=&quot;color:#6a3e3e;&quot;&gt;registry&lt;/span&gt;.add(&lt;span style=&quot;color:#2a00ff;&quot;&gt;&quot;spring.datasource.password&quot;&lt;/span&gt;, &lt;span style=&quot;color:#0000c0;font-style:italic;&quot;&gt;database&lt;/span&gt;::getPassword);&lt;/p&gt;&lt;p style=&quot;margin:0;&quot;&gt;&#x9;}&lt;/p&gt;&lt;p style=&quot;margin:0;&quot;&gt;}&lt;/p&gt;&lt;p style=&quot;margin:0;&quot;&gt;&lt;/p&gt;&lt;/div&gt;&lt;/div&gt;" style="text;html=1;align=left;verticalAlign=middle;whiteSpace=wrap;rounded=0;fillColor=default;" vertex="1" parent="1">
          <mxGeometry x="480" y="160" width="980" height="490" as="geometry" />
        </mxCell>
        <mxCell id="y5CObWysCdetJC3XvUUU-8" value="PersistenceTest" style="swimlane;fontStyle=1;align=center;verticalAlign=top;childLayout=stackLayout;horizontal=1;startSize=26;horizontalStack=0;resizeParent=1;resizeParentMax=0;resizeLast=0;collapsible=1;marginBottom=0;whiteSpace=wrap;html=1;" vertex="1" parent="1">
          <mxGeometry x="80" y="360" width="360" height="150" as="geometry" />
        </mxCell>
        <mxCell id="y5CObWysCdetJC3XvUUU-12" value="- repository: ReviewRepository" style="text;strokeColor=none;fillColor=none;align=left;verticalAlign=top;spacingLeft=4;spacingRight=4;overflow=hidden;rotatable=0;points=[[0,0.5],[1,0.5]];portConstraint=eastwest;whiteSpace=wrap;html=1;" vertex="1" parent="y5CObWysCdetJC3XvUUU-8">
          <mxGeometry y="26" width="360" height="26" as="geometry" />
        </mxCell>
        <mxCell id="y5CObWysCdetJC3XvUUU-9" value="- savedEntity: ReviewEntity" style="text;strokeColor=none;fillColor=none;align=left;verticalAlign=top;spacingLeft=4;spacingRight=4;overflow=hidden;rotatable=0;points=[[0,0.5],[1,0.5]];portConstraint=eastwest;whiteSpace=wrap;html=1;" vertex="1" parent="y5CObWysCdetJC3XvUUU-8">
          <mxGeometry y="52" width="360" height="26" as="geometry" />
        </mxCell>
        <mxCell id="y5CObWysCdetJC3XvUUU-10" value="" style="line;strokeWidth=1;fillColor=none;align=left;verticalAlign=middle;spacingTop=-1;spacingLeft=3;spacingRight=3;rotatable=0;labelPosition=right;points=[];portConstraint=eastwest;strokeColor=inherit;" vertex="1" parent="y5CObWysCdetJC3XvUUU-8">
          <mxGeometry y="78" width="360" height="8" as="geometry" />
        </mxCell>
        <mxCell id="y5CObWysCdetJC3XvUUU-14" value="setupDB()" style="text;strokeColor=none;fillColor=none;align=left;verticalAlign=top;spacingLeft=4;spacingRight=4;overflow=hidden;rotatable=0;points=[[0,0.5],[1,0.5]];portConstraint=eastwest;whiteSpace=wrap;html=1;" vertex="1" parent="y5CObWysCdetJC3XvUUU-8">
          <mxGeometry y="86" width="360" height="26" as="geometry" />
        </mxCell>
        <mxCell id="y5CObWysCdetJC3XvUUU-11" value="- assertEqualsReview(expectedEntity: ReviewEntity,&amp;nbsp;&lt;div&gt;&lt;span style=&quot;white-space: pre;&quot;&gt;&#x9;&lt;/span&gt;&lt;span style=&quot;white-space: pre;&quot;&gt;&#x9;&lt;/span&gt;&lt;span style=&quot;white-space: pre;&quot;&gt;&#x9;&lt;/span&gt;&lt;span style=&quot;white-space: pre;&quot;&gt;&#x9;&lt;/span&gt;&lt;span style=&quot;white-space: pre;&quot;&gt;&#x9;&lt;/span&gt;&lt;span style=&quot;white-space: pre;&quot;&gt;&#x9;&lt;/span&gt;&lt;span style=&quot;white-space: pre;&quot;&gt;&#x9;&lt;/span&gt;actualEntity: ReviewEntity)&lt;/div&gt;" style="text;strokeColor=none;fillColor=none;align=left;verticalAlign=top;spacingLeft=4;spacingRight=4;overflow=hidden;rotatable=0;points=[[0,0.5],[1,0.5]];portConstraint=eastwest;whiteSpace=wrap;html=1;" vertex="1" parent="y5CObWysCdetJC3XvUUU-8">
          <mxGeometry y="112" width="360" height="38" as="geometry" />
        </mxCell>
        <mxCell id="y5CObWysCdetJC3XvUUU-13" value="Extends" style="endArrow=block;endSize=16;endFill=0;html=1;rounded=0;entryX=0.504;entryY=0.896;entryDx=0;entryDy=0;entryPerimeter=0;" edge="1" parent="1" source="y5CObWysCdetJC3XvUUU-8" target="y5CObWysCdetJC3XvUUU-4">
          <mxGeometry width="160" relative="1" as="geometry">
            <mxPoint x="110" y="580" as="sourcePoint" />
            <mxPoint x="270" y="580" as="targetPoint" />
          </mxGeometry>
        </mxCell>
        <mxCell id="y5CObWysCdetJC3XvUUU-15" value="&lt;div style=&quot;background-color:#ffffff;padding:0px 0px 0px 2px;&quot;&gt;&lt;div style=&quot;font-family: Monospace; font-size: 10pt; white-space: pre;&quot;&gt;&lt;div style=&quot;padding: 0px 0px 0px 2px;&quot;&gt;&lt;div style=&quot;font-family: Monospace; font-size: 10pt;&quot;&gt;&lt;p style=&quot;margin:0;&quot;&gt;&lt;span style=&quot;color:#7f0055;font-weight:bold;&quot;&gt;package&lt;/span&gt; com.david.microservices.alpha.review;&lt;/p&gt;&lt;p style=&quot;margin:0;&quot;&gt;&lt;br&gt;&lt;/p&gt;&lt;p style=&quot;margin:0;&quot;&gt;&lt;span style=&quot;color:#7f0055;font-weight:bold;&quot;&gt;import&lt;/span&gt; &lt;span style=&quot;color:#7f0055;font-weight:bold;&quot;&gt;static&lt;/span&gt; org.junit.jupiter.api.Assertions.&lt;span style=&quot;font-style: italic;&quot;&gt;assertEquals&lt;/span&gt;;&lt;/p&gt;&lt;p style=&quot;margin:0;&quot;&gt;&lt;br&gt;&lt;/p&gt;&lt;p style=&quot;margin:0;&quot;&gt;&lt;span style=&quot;color:#7f0055;font-weight:bold;&quot;&gt;import&lt;/span&gt; org.junit.jupiter.api.BeforeEach;&lt;/p&gt;&lt;p style=&quot;margin:0;&quot;&gt;&lt;span style=&quot;color:#7f0055;font-weight:bold;&quot;&gt;import&lt;/span&gt; org.springframework.beans.factory.annotation.Autowired;&lt;/p&gt;&lt;p style=&quot;margin:0;&quot;&gt;&lt;span style=&quot;color:#7f0055;font-weight:bold;&quot;&gt;import&lt;/span&gt; org.springframework.boot.test.autoconfigure.jdbc.AutoConfigureTestDatabase;&lt;/p&gt;&lt;p style=&quot;margin:0;&quot;&gt;&lt;span style=&quot;color:#7f0055;font-weight:bold;&quot;&gt;import&lt;/span&gt; org.springframework.boot.test.autoconfigure.orm.jpa.DataJpaTest;&lt;/p&gt;&lt;p style=&quot;margin:0;&quot;&gt;&lt;span style=&quot;color:#7f0055;font-weight:bold;&quot;&gt;import&lt;/span&gt; org.springframework.transaction.annotation.Propagation;&lt;/p&gt;&lt;p style=&quot;margin:0;&quot;&gt;&lt;span style=&quot;color:#7f0055;font-weight:bold;&quot;&gt;import&lt;/span&gt; org.springframework.transaction.annotation.Transactional;&lt;/p&gt;&lt;p style=&quot;margin:0;&quot;&gt;&lt;br&gt;&lt;/p&gt;&lt;p style=&quot;margin:0;&quot;&gt;&lt;span style=&quot;color:#7f0055;font-weight:bold;&quot;&gt;import&lt;/span&gt; com.david.microservices.alpha.review.persistence.ReviewEntity;&lt;/p&gt;&lt;p style=&quot;margin:0;&quot;&gt;&lt;span style=&quot;color:#7f0055;font-weight:bold;&quot;&gt;import&lt;/span&gt; com.david.microservices.alpha.review.persistence.ReviewRepository;&lt;/p&gt;&lt;p style=&quot;margin:0;&quot;&gt;&lt;br&gt;&lt;/p&gt;&lt;p style=&quot;margin:0;&quot;&gt;&lt;span style=&quot;color:#646464;&quot;&gt;@DataJpaTest&lt;/span&gt;&lt;/p&gt;&lt;p style=&quot;margin:0;&quot;&gt;&lt;span style=&quot;color:#646464;&quot;&gt;@Transactional&lt;/span&gt;(propagation = Propagation.&lt;span style=&quot;color:#0000c0;font-style:italic;font-weight:bold;&quot;&gt;NOT_SUPPORTED&lt;/span&gt;)&lt;/p&gt;&lt;p style=&quot;margin:0;&quot;&gt;&lt;span style=&quot;color:#646464;&quot;&gt;@AutoConfigureTestDatabase&lt;/span&gt;(replace = &lt;span style=&quot;color:#646464;&quot;&gt;AutoConfigureTestDatabase&lt;/span&gt;.Replace.&lt;span style=&quot;color:#0000c0;font-style:italic;font-weight:bold;&quot;&gt;NONE&lt;/span&gt;)&lt;/p&gt;&lt;p style=&quot;margin:0;&quot;&gt;&lt;span style=&quot;color:#7f0055;font-weight:bold;&quot;&gt;public&lt;/span&gt; &lt;span style=&quot;color:#7f0055;font-weight:bold;&quot;&gt;class&lt;/span&gt; PersistenceTest &lt;span style=&quot;color:#7f0055;font-weight:bold;&quot;&gt;extends&lt;/span&gt; MySqlTestBase {&lt;/p&gt;&lt;p style=&quot;margin:0;&quot;&gt;&#x9;&lt;/p&gt;&lt;p style=&quot;margin:0;&quot;&gt;&#x9;&lt;span style=&quot;color:#646464;&quot;&gt;@Autowired&lt;/span&gt;&lt;/p&gt;&lt;p style=&quot;margin:0;&quot;&gt;&#x9;&lt;span style=&quot;color:#7f0055;font-weight:bold;&quot;&gt;private&lt;/span&gt; ReviewRepository &lt;span style=&quot;color:#0000c0;&quot;&gt;repository&lt;/span&gt;;&lt;/p&gt;&lt;p style=&quot;margin:0;&quot;&gt;&#x9;&lt;/p&gt;&lt;p style=&quot;margin:0;&quot;&gt;&#x9;&lt;span style=&quot;color:#7f0055;font-weight:bold;&quot;&gt;private&lt;/span&gt; ReviewEntity &lt;span style=&quot;color:#0000c0;&quot;&gt;savedEntity&lt;/span&gt;;&lt;/p&gt;&lt;p style=&quot;margin:0;&quot;&gt;&#x9;&lt;/p&gt;&lt;p style=&quot;margin:0;&quot;&gt;&#x9;&lt;span style=&quot;color:#646464;&quot;&gt;@BeforeEach&lt;/span&gt;&lt;/p&gt;&lt;p style=&quot;margin:0;&quot;&gt;&#x9;&lt;span style=&quot;color:#7f0055;font-weight:bold;&quot;&gt;void&lt;/span&gt; setupDb() {&lt;/p&gt;&lt;p style=&quot;margin:0;&quot;&gt;&#x9;&#x9;&lt;span style=&quot;color:#0000c0;&quot;&gt;repository&lt;/span&gt;.deleteAll();&lt;/p&gt;&lt;p style=&quot;margin:0;&quot;&gt;&#x9;&#x9;&lt;/p&gt;&lt;p style=&quot;margin:0;&quot;&gt;&#x9;&#x9;ReviewEntity &lt;span style=&quot;color:#6a3e3e;&quot;&gt;entity&lt;/span&gt; = &lt;span style=&quot;color:#7f0055;font-weight:bold;&quot;&gt;new&lt;/span&gt; ReviewEntity(1, 2, &lt;span style=&quot;color:#2a00ff;&quot;&gt;&quot;AuthorA&quot;&lt;/span&gt;, &lt;span style=&quot;color:#2a00ff;&quot;&gt;&quot;Subject S&quot;&lt;/span&gt;, &lt;span style=&quot;color:#2a00ff;&quot;&gt;&quot;Content c&quot;&lt;/span&gt;);&lt;/p&gt;&lt;p style=&quot;margin:0;&quot;&gt;&#x9;&#x9;&lt;/p&gt;&lt;p style=&quot;margin:0;&quot;&gt;&#x9;&#x9;&lt;span style=&quot;color:#0000c0;&quot;&gt;savedEntity&lt;/span&gt; = &lt;span style=&quot;color:#0000c0;&quot;&gt;repository&lt;/span&gt;.save(&lt;span style=&quot;color:#6a3e3e;&quot;&gt;entity&lt;/span&gt;);&lt;/p&gt;&lt;p style=&quot;margin:0;&quot;&gt;&#x9;&#x9;assertEqualsReview(&lt;span style=&quot;color:#6a3e3e;&quot;&gt;entity&lt;/span&gt;, &lt;span style=&quot;color:#0000c0;&quot;&gt;savedEntity&lt;/span&gt;);&lt;/p&gt;&lt;p style=&quot;margin:0;&quot;&gt;&#x9;}&lt;/p&gt;&lt;p style=&quot;margin:0;&quot;&gt;&lt;br&gt;&lt;/p&gt;&lt;p style=&quot;margin:0;&quot;&gt;&#x9;&lt;span style=&quot;color:#7f0055;font-weight:bold;&quot;&gt;private&lt;/span&gt; &lt;span style=&quot;color:#7f0055;font-weight:bold;&quot;&gt;void&lt;/span&gt; assertEqualsReview(ReviewEntity &lt;span style=&quot;color:#6a3e3e;&quot;&gt;expectedEntity&lt;/span&gt;, ReviewEntity &lt;span style=&quot;color:#6a3e3e;&quot;&gt;actualEntity&lt;/span&gt;) {&lt;/p&gt;&lt;p style=&quot;margin:0;&quot;&gt;&#x9;&#x9;&lt;span style=&quot;font-style: italic;&quot;&gt;assertEquals&lt;/span&gt;(&lt;span style=&quot;color:#6a3e3e;&quot;&gt;expectedEntity&lt;/span&gt;.getId(), &lt;span style=&quot;color:#6a3e3e;&quot;&gt;actualEntity&lt;/span&gt;.getId());&lt;/p&gt;&lt;p style=&quot;margin:0;&quot;&gt;&#x9;&#x9;&lt;span style=&quot;font-style: italic;&quot;&gt;assertEquals&lt;/span&gt;(&lt;span style=&quot;color:#6a3e3e;&quot;&gt;expectedEntity&lt;/span&gt;.getVersion(), &lt;span style=&quot;color:#6a3e3e;&quot;&gt;actualEntity&lt;/span&gt;.getVersion());&lt;/p&gt;&lt;p style=&quot;margin:0;&quot;&gt;&#x9;&#x9;&lt;span style=&quot;font-style: italic;&quot;&gt;assertEquals&lt;/span&gt;(&lt;span style=&quot;color:#6a3e3e;&quot;&gt;expectedEntity&lt;/span&gt;.getProductId(), &lt;span style=&quot;color:#6a3e3e;&quot;&gt;actualEntity&lt;/span&gt;.getProductId());&lt;/p&gt;&lt;p style=&quot;margin:0;&quot;&gt;&#x9;&#x9;&lt;span style=&quot;font-style: italic;&quot;&gt;assertEquals&lt;/span&gt;(&lt;span style=&quot;color:#6a3e3e;&quot;&gt;expectedEntity&lt;/span&gt;.getReviewId(), &lt;span style=&quot;color:#6a3e3e;&quot;&gt;actualEntity&lt;/span&gt;.getReviewId());&lt;/p&gt;&lt;p style=&quot;margin:0;&quot;&gt;&#x9;&#x9;&lt;span style=&quot;font-style: italic;&quot;&gt;assertEquals&lt;/span&gt;(&lt;span style=&quot;color:#6a3e3e;&quot;&gt;expectedEntity&lt;/span&gt;.getAuthor(), &lt;span style=&quot;color:#6a3e3e;&quot;&gt;actualEntity&lt;/span&gt;.getAuthor());&lt;/p&gt;&lt;p style=&quot;margin:0;&quot;&gt;&#x9;&#x9;&lt;span style=&quot;font-style: italic;&quot;&gt;assertEquals&lt;/span&gt;(&lt;span style=&quot;color:#6a3e3e;&quot;&gt;expectedEntity&lt;/span&gt;.getSubject(), &lt;span style=&quot;color:#6a3e3e;&quot;&gt;actualEntity&lt;/span&gt;.getSubject());&lt;/p&gt;&lt;p style=&quot;margin:0;&quot;&gt;&#x9;&#x9;&lt;span style=&quot;font-style: italic;&quot;&gt;assertEquals&lt;/span&gt;(&lt;span style=&quot;color:#6a3e3e;&quot;&gt;expectedEntity&lt;/span&gt;.getContent(), &lt;span style=&quot;color:#6a3e3e;&quot;&gt;actualEntity&lt;/span&gt;.getContent());&lt;/p&gt;&lt;p style=&quot;margin:0;&quot;&gt;&#x9;}&lt;/p&gt;&lt;p style=&quot;margin:0;&quot;&gt;}&lt;/p&gt;&lt;p style=&quot;margin:0;&quot;&gt;&lt;/p&gt;&lt;/div&gt;&lt;/div&gt;&lt;p style=&quot;margin:0;&quot;&gt;&lt;/p&gt;&lt;/div&gt;&lt;/div&gt;" style="text;html=1;align=left;verticalAlign=middle;whiteSpace=wrap;rounded=0;fillColor=default;" vertex="1" parent="1">
          <mxGeometry x="80" y="680" width="980" height="770" as="geometry" />
        </mxCell>
      </root>
    </mxGraphModel>
  </diagram>
</mxfile>
